<mxfile host="app.diagrams.net" agent="Mozilla/5.0 (Windows NT 10.0; Win64; x64) AppleWebKit/537.36 (KHTML, like Gecko) Chrome/126.0.0.0 Safari/537.36" version="26.0.11">
  <diagram name="第 1 页" id="q3xzYs2Jp6EOzJWgxKIQ">
    <mxGraphModel dx="1434" dy="841" grid="0" gridSize="10" guides="1" tooltips="1" connect="1" arrows="1" fold="1" page="1" pageScale="1" pageWidth="827" pageHeight="1169" math="0" shadow="0">
      <root>
        <mxCell id="0" />
        <mxCell id="1" parent="0" />
        <mxCell id="AbXdpTjg0EbsxotE9Cbp-2" value="样品审核" style="strokeWidth=2;html=1;shape=mxgraph.flowchart.terminator;whiteSpace=wrap;" vertex="1" parent="1">
          <mxGeometry x="254" y="239" width="126" height="69" as="geometry" />
        </mxCell>
        <mxCell id="AbXdpTjg0EbsxotE9Cbp-6" style="edgeStyle=orthogonalEdgeStyle;rounded=0;orthogonalLoop=1;jettySize=auto;html=1;exitX=0.5;exitY=1;exitDx=0;exitDy=0;exitPerimeter=0;strokeWidth=2;" edge="1" parent="1" source="AbXdpTjg0EbsxotE9Cbp-3" target="AbXdpTjg0EbsxotE9Cbp-5">
          <mxGeometry relative="1" as="geometry" />
        </mxCell>
        <mxCell id="AbXdpTjg0EbsxotE9Cbp-7" value="是" style="edgeLabel;html=1;align=center;verticalAlign=middle;resizable=0;points=[];" vertex="1" connectable="0" parent="AbXdpTjg0EbsxotE9Cbp-6">
          <mxGeometry x="-0.0476" y="-1" relative="1" as="geometry">
            <mxPoint as="offset" />
          </mxGeometry>
        </mxCell>
        <mxCell id="AbXdpTjg0EbsxotE9Cbp-3" value="审核是否通过" style="strokeWidth=2;html=1;shape=mxgraph.flowchart.decision;whiteSpace=wrap;" vertex="1" parent="1">
          <mxGeometry x="249.5" y="380" width="135" height="79" as="geometry" />
        </mxCell>
        <mxCell id="AbXdpTjg0EbsxotE9Cbp-4" style="edgeStyle=orthogonalEdgeStyle;rounded=0;orthogonalLoop=1;jettySize=auto;html=1;exitX=0.5;exitY=1;exitDx=0;exitDy=0;exitPerimeter=0;entryX=0.5;entryY=0;entryDx=0;entryDy=0;entryPerimeter=0;strokeWidth=2;" edge="1" parent="1" source="AbXdpTjg0EbsxotE9Cbp-2" target="AbXdpTjg0EbsxotE9Cbp-3">
          <mxGeometry relative="1" as="geometry" />
        </mxCell>
        <mxCell id="AbXdpTjg0EbsxotE9Cbp-25" style="edgeStyle=orthogonalEdgeStyle;rounded=0;orthogonalLoop=1;jettySize=auto;html=1;exitX=1;exitY=0.75;exitDx=0;exitDy=0;entryX=0;entryY=0.5;entryDx=0;entryDy=0;strokeWidth=2;" edge="1" parent="1" source="AbXdpTjg0EbsxotE9Cbp-5" target="AbXdpTjg0EbsxotE9Cbp-10">
          <mxGeometry relative="1" as="geometry" />
        </mxCell>
        <mxCell id="AbXdpTjg0EbsxotE9Cbp-5" value="把该类养分的样品记录状态改为&amp;lt;已审核&amp;gt;" style="rounded=0;whiteSpace=wrap;html=1;strokeWidth=2;" vertex="1" parent="1">
          <mxGeometry x="258" y="630" width="120" height="60" as="geometry" />
        </mxCell>
        <mxCell id="AbXdpTjg0EbsxotE9Cbp-10" value="增加一条该养料的样品记录的审核记录" style="rounded=0;whiteSpace=wrap;html=1;strokeWidth=2;" vertex="1" parent="1">
          <mxGeometry x="589" y="645" width="120" height="60" as="geometry" />
        </mxCell>
        <mxCell id="AbXdpTjg0EbsxotE9Cbp-14" value="把工单的状态改为&lt;div&gt;&amp;lt;已审核&amp;gt;&lt;/div&gt;" style="rounded=0;whiteSpace=wrap;html=1;strokeWidth=2;" vertex="1" parent="1">
          <mxGeometry x="258" y="918" width="120" height="60" as="geometry" />
        </mxCell>
        <mxCell id="AbXdpTjg0EbsxotE9Cbp-20" style="edgeStyle=orthogonalEdgeStyle;rounded=0;orthogonalLoop=1;jettySize=auto;html=1;exitX=0.5;exitY=1;exitDx=0;exitDy=0;exitPerimeter=0;entryX=1;entryY=0.25;entryDx=0;entryDy=0;strokeWidth=2;" edge="1" parent="1" source="AbXdpTjg0EbsxotE9Cbp-16" target="AbXdpTjg0EbsxotE9Cbp-5">
          <mxGeometry relative="1" as="geometry" />
        </mxCell>
        <mxCell id="AbXdpTjg0EbsxotE9Cbp-21" value="是" style="edgeLabel;html=1;align=center;verticalAlign=middle;resizable=0;points=[];" vertex="1" connectable="0" parent="AbXdpTjg0EbsxotE9Cbp-20">
          <mxGeometry x="0.4048" y="1" relative="1" as="geometry">
            <mxPoint x="-6" y="-1" as="offset" />
          </mxGeometry>
        </mxCell>
        <mxCell id="AbXdpTjg0EbsxotE9Cbp-27" style="edgeStyle=orthogonalEdgeStyle;rounded=0;orthogonalLoop=1;jettySize=auto;html=1;exitX=1;exitY=0.5;exitDx=0;exitDy=0;exitPerimeter=0;strokeWidth=2;" edge="1" parent="1" source="AbXdpTjg0EbsxotE9Cbp-16" target="AbXdpTjg0EbsxotE9Cbp-26">
          <mxGeometry relative="1" as="geometry" />
        </mxCell>
        <mxCell id="AbXdpTjg0EbsxotE9Cbp-29" value="否" style="edgeLabel;html=1;align=center;verticalAlign=middle;resizable=0;points=[];" vertex="1" connectable="0" parent="AbXdpTjg0EbsxotE9Cbp-27">
          <mxGeometry x="-0.1677" y="-3" relative="1" as="geometry">
            <mxPoint y="-3" as="offset" />
          </mxGeometry>
        </mxCell>
        <mxCell id="AbXdpTjg0EbsxotE9Cbp-16" value="审核人是否选择&lt;div&gt;手动校正&lt;/div&gt;" style="strokeWidth=2;html=1;shape=mxgraph.flowchart.decision;whiteSpace=wrap;" vertex="1" parent="1">
          <mxGeometry x="396" y="489" width="135" height="79" as="geometry" />
        </mxCell>
        <mxCell id="AbXdpTjg0EbsxotE9Cbp-17" style="edgeStyle=orthogonalEdgeStyle;rounded=0;orthogonalLoop=1;jettySize=auto;html=1;exitX=1;exitY=0.5;exitDx=0;exitDy=0;exitPerimeter=0;entryX=0.5;entryY=0;entryDx=0;entryDy=0;entryPerimeter=0;strokeWidth=2;" edge="1" parent="1" source="AbXdpTjg0EbsxotE9Cbp-3" target="AbXdpTjg0EbsxotE9Cbp-16">
          <mxGeometry relative="1" as="geometry" />
        </mxCell>
        <mxCell id="AbXdpTjg0EbsxotE9Cbp-18" value="否" style="edgeLabel;html=1;align=center;verticalAlign=middle;resizable=0;points=[];" vertex="1" connectable="0" parent="AbXdpTjg0EbsxotE9Cbp-17">
          <mxGeometry y="-2" relative="1" as="geometry">
            <mxPoint x="-41" y="-2" as="offset" />
          </mxGeometry>
        </mxCell>
        <mxCell id="AbXdpTjg0EbsxotE9Cbp-28" style="edgeStyle=orthogonalEdgeStyle;rounded=0;orthogonalLoop=1;jettySize=auto;html=1;exitX=0.5;exitY=1;exitDx=0;exitDy=0;entryX=0.5;entryY=0;entryDx=0;entryDy=0;strokeWidth=2;" edge="1" parent="1" source="AbXdpTjg0EbsxotE9Cbp-26" target="AbXdpTjg0EbsxotE9Cbp-10">
          <mxGeometry relative="1" as="geometry" />
        </mxCell>
        <mxCell id="AbXdpTjg0EbsxotE9Cbp-26" value="把该养料的样品记录状态改为&amp;lt;重检&amp;gt;" style="rounded=0;whiteSpace=wrap;html=1;strokeWidth=2;" vertex="1" parent="1">
          <mxGeometry x="589" y="498.5" width="120" height="60" as="geometry" />
        </mxCell>
        <mxCell id="AbXdpTjg0EbsxotE9Cbp-32" style="edgeStyle=orthogonalEdgeStyle;rounded=0;orthogonalLoop=1;jettySize=auto;html=1;exitX=0.5;exitY=1;exitDx=0;exitDy=0;exitPerimeter=0;entryX=0.5;entryY=0;entryDx=0;entryDy=0;strokeWidth=2;" edge="1" parent="1" source="AbXdpTjg0EbsxotE9Cbp-30" target="AbXdpTjg0EbsxotE9Cbp-14">
          <mxGeometry relative="1" as="geometry" />
        </mxCell>
        <mxCell id="AbXdpTjg0EbsxotE9Cbp-33" value="是" style="edgeLabel;html=1;align=center;verticalAlign=middle;resizable=0;points=[];" vertex="1" connectable="0" parent="AbXdpTjg0EbsxotE9Cbp-32">
          <mxGeometry x="-0.2432" y="-1" relative="1" as="geometry">
            <mxPoint as="offset" />
          </mxGeometry>
        </mxCell>
        <mxCell id="AbXdpTjg0EbsxotE9Cbp-35" style="edgeStyle=orthogonalEdgeStyle;rounded=0;orthogonalLoop=1;jettySize=auto;html=1;exitX=1;exitY=0.5;exitDx=0;exitDy=0;exitPerimeter=0;entryX=0;entryY=0.5;entryDx=0;entryDy=0;strokeWidth=2;" edge="1" parent="1" source="AbXdpTjg0EbsxotE9Cbp-30" target="AbXdpTjg0EbsxotE9Cbp-34">
          <mxGeometry relative="1" as="geometry" />
        </mxCell>
        <mxCell id="AbXdpTjg0EbsxotE9Cbp-36" value="否" style="edgeLabel;html=1;align=center;verticalAlign=middle;resizable=0;points=[];" vertex="1" connectable="0" parent="AbXdpTjg0EbsxotE9Cbp-35">
          <mxGeometry x="-0.0729" y="1" relative="1" as="geometry">
            <mxPoint y="1" as="offset" />
          </mxGeometry>
        </mxCell>
        <mxCell id="AbXdpTjg0EbsxotE9Cbp-30" value="该工单全部养分&lt;div&gt;的全部样品记录&lt;/div&gt;&lt;div&gt;状态是否都已经为&lt;/div&gt;&lt;div&gt;&amp;lt;已审核&amp;gt;&lt;/div&gt;" style="strokeWidth=2;html=1;shape=mxgraph.flowchart.decision;whiteSpace=wrap;" vertex="1" parent="1">
          <mxGeometry x="232.25" y="737" width="171.5" height="107" as="geometry" />
        </mxCell>
        <mxCell id="AbXdpTjg0EbsxotE9Cbp-31" style="edgeStyle=orthogonalEdgeStyle;rounded=0;orthogonalLoop=1;jettySize=auto;html=1;exitX=0.5;exitY=1;exitDx=0;exitDy=0;entryX=0.5;entryY=0;entryDx=0;entryDy=0;entryPerimeter=0;strokeWidth=2;" edge="1" parent="1" source="AbXdpTjg0EbsxotE9Cbp-5" target="AbXdpTjg0EbsxotE9Cbp-30">
          <mxGeometry relative="1" as="geometry" />
        </mxCell>
        <mxCell id="AbXdpTjg0EbsxotE9Cbp-34" value="工单状态保持&lt;div&gt;&amp;lt;待审核&amp;gt;&lt;/div&gt;" style="rounded=0;whiteSpace=wrap;html=1;strokeWidth=2;" vertex="1" parent="1">
          <mxGeometry x="510" y="760.5" width="120" height="60" as="geometry" />
        </mxCell>
      </root>
    </mxGraphModel>
  </diagram>
</mxfile>
